<?xml version="1.0" encoding="UTF-8"?><svg xmlns="http://www.w3.org/2000/svg" viewBox="0 0 448.92 82"><defs><style>.cls-1{font-family:MuseoModerno-SemiBold, MuseoModerno;font-size:49.84px;font-weight:600;}.cls-1,.cls-2{fill:#142637;}.cls-3{fill:none;stroke:#142637;stroke-miterlimit:10;stroke-width:2px;}.cls-2{fill-rule:evenodd;}</style></defs><g id="Layer_1"><path class="cls-2" d="m73.27,50.38c-.4-5.51-3.78-8.96-3.43-14.41.13-2.02,2.96-18.41,1.63-18.74-1.35-.34-4,4.13-5.44,4.08-2.38-.09-.51-7.95-1.87-9.59-1.44-1.73-5.38.09-7.43-1.11-1.15-.67-2.89-4.11-4.03-4.45-1.09-.33-3.07,2.07-4.05,1.47-1.94-1.18-3.51-4.33-5.75-5.01-1.78-.54-4.38,2.93-5.48,3.99-2.58,2.49-3.24-3.6-6.49-2.38-1.83.68-2.42,6.18-3.59,7.73-1.8,2.37-5.32,4.58-8.34,4.33-2-.17-5.64-1.52-7.52-.52,2.27.72,6.13.93,7.68,2.99,1.16,1.54,3.33,3.48,5.2,4.15,2.08.74,4.16-2.5,4.76-4.25.72-2.13,2.4.52,4.3.09,2.46-.55.51-3.11-.71-4.23-3.67-3.37.41-1.88,2.3-1.91,3.94-.06,1.47,2.07,3.46,4.13.38,1.5,3.67,1.91,4.9,1.91-.38-.66-4.1-2.5-2.82-3.5.9-.7,2.7.27,3.35.92.91.91,5.17,5.33,5.86,1.35,4.33-1.45,1.81,3.67,5.46.73,3.19-2.57,2.75,2.06,3.77,3.97,1.88,3.54,8.72,2.46,9.83,7.45.12.52-1.85,2.18-2.36,1.92-1.21-.63-1.2-1.96-2.29-2.37-3.96-1.48-3.18-.23-6.96.81-2.18.6-3.18-2.56-3.62,1.27-.19,1.63,0,2.5.54,3.93,1.15,3,3.58.59,5.89-.31,1.4-.55,5.12,3.54,4.02,5.59-1.35,1.52-5.04,3.39-5.35,5.27-.63,3.78,1.28,6.7-1.78,9.66-1.45,1.41-7.02,2.89-5.7-.75.9-2.48,4.23-2.49,6.08-3.87,1.02-.76.68-4.88-.6-4.88.63,1.9,1.4,3.96-1.49,3.9-2.26-.04-3.19,2.22-4.91,2.22,0-2.07-2.47-1.02-3.49-.55-1.23.57-.27,2.45-.09,3.55.76,4.53-3.51,2.76-5.76,1.23-.52-.35-7.93-5.06-6.8-1.28.73,2.45,3.49,4.02,3.64,7.06.22,4.23.97,2.94,4.42,4.46,2.81,1.24,6.71-.68,9.66.23,1.61.49,2.16,3.55-.01,3.56-1.44,0-2.76-.56-4.15-.84,0-.19-5.93,1.46-6.53,1.77,1.06,3.18,12.56-4.7,11.34,2.16.24-1.38,7.71.15,7.71-.94.97,0,3.22.07,3.83-.86.95-1.45-1.85-.24-2.05-.09-3.64,2.73-.64-6.42-.31-7.51.93-3.12,2.07,2.98,2.2,3.01.76-2.11,2.45-4.21,2.45-.14,2,0-1.69-11.11-.95-12.52,4.93,0,5.57,6.13,5.04,9.53,2.97-.99,3.03-10.69,2.83-13.47Zm-2.28-4.91c1.74,0-.07,2.35-.07.75l.07-.75Zm.27,9.8c-.38-.76-3.81-3.41-3.81-3.81-1.9,0-3.56-1.84-3.25-3.5.1-.52,1.07-1.52,1.07-1.68.41.02,3.27,1.73,3.27,2.04.47.16,1.71,1.77,1.63,1.77,0,.75,3.71,5.17,1.09,5.17ZM18.66,23.36c-.81-1.1-4.2-5.22-5.51-5.51-1.67,1.97.7,2.83,1.03,4.98.09.6,1.73,3.93,2.17,4.04,2.19.6,3.56-1.81,2.31-3.51Zm-5.62,13.24c2.36.74,6.7.36,9.13-.19,2.6-.58.88-4.4.09-5.77-1.71-.14-2.19,1.99-3.38,2.81-5.79,3.97-.57-2.45-.57-4.71-1.27.28-2.77,1.81-3.48.18-.53-1.22-1.02-3-2.03-3.93l.48,1.57c.31,3.13.11,3.56-.8,6.28-.41,1.21-1.2,3.2.56,3.76Zm5.28-8c.23.23.5,0,0,0h0Zm12.11,4.67c1.68-.39,2.24.63,4.07-.03.9-.32,2.1-.88,3.09-.63,1.28.32.93,3.32,1.41,4.3,1.03,0,1.43-3.78,1.63-4.63.74-.25,1.37-.66,1.91-1.22-2.66-1.41-9.27-2.41-11.97-.96-1.54.83-3.33,3.91-.14,3.17Zm-14.51,20.9c.55-.51,10.03-13.23,6.07-14-1.83,1.63-3.08,3.79-4.93,5.42-1.22,1.07-2.17.47-3.35,1.62-.97.95-3.55,3.43-3.9,4.73-.34,1.27,2.24.97,2.24.07,5.03-3.77,2.44,3.13,1.91,3.13,0,1.19-3.76,13.06.68,13.06-.85-2.12-.74-5.89-.1-8.03.42-1.4.18-4.89,1.37-6.01Zm6.89,13.95c.9.34,2.41-10.41,2.89-11.72.45-1.21,1.69-1.68,1-2.67-.36-.52.28-1.51.52-1.9,1.78-2.83,1.76.91,4.02.05-.16-1.82-2.21-2.74-3.81-2.72,0,2-4.79,1.59-4.95,3.24-.27,2.63-1.24,3.94-2.73,5.83-2.01,2.58.97,3.23,1.47,5.03.33,1.21.11,4.32,1.58,4.87Zm6.67-4.81c0,.9-.52,3.56-.77,4.68-.51,2.31,2.81,2.33,2.59,4.34-.29,2.63-7.53,1.82-9.3,2.42.16,1.61,9.6.18,11.15-.28,1.09-.32-.59-2.39-.5-3.37.13-1.42.93-1.39,1.05-2.62.19-1.97-2.08-5.19-4.21-5.16Zm11.02,13.61c.64,1.08,9.74-.12,9.93-.82-1.61-.74-3.93-1.5-5.72-1.5-.11,2-3.03,1.52-4.22,2.31Z"/><circle class="cls-3" cx="41" cy="41" r="40"/></g><g id="Layer_2"><text class="cls-1" transform="translate(95.83 58.82)"><tspan x="0" y="0">LEO OSBORNE</tspan></text></g></svg>